<?xml version="1.0" encoding="UTF-8" standalone="no"?>
<svg
   xmlns:dc="http://purl.org/dc/elements/1.1/"
   xmlns:cc="http://creativecommons.org/ns#"
   xmlns:rdf="http://www.w3.org/1999/02/22-rdf-syntax-ns#"
   xmlns:svg="http://www.w3.org/2000/svg"
   xmlns="http://www.w3.org/2000/svg"
   viewBox="0 0 718.18665 636.37335"
   height="636.37335"
   width="718.18665"
   xml:space="preserve"
   id="svg2"
   version="1.1"><metadata
     id="metadata8"><rdf:RDF><cc:Work
         rdf:about=""><dc:format>image/svg+xml</dc:format><dc:type
           rdf:resource="http://purl.org/dc/dcmitype/StillImage" /></cc:Work></rdf:RDF></metadata><defs
     id="defs6"><clipPath
       id="clipPath20"
       clipPathUnits="userSpaceOnUse"><path
         id="path18"
         d="M 0,0 H 5386 V 4772.8 H 0 Z" /></clipPath></defs><g
     transform="matrix(1.3333333,0,0,-1.3333333,0,636.37333)"
     id="g10"><g
       transform="scale(0.1)"
       id="g12"><g
         id="g14"><g
           clip-path="url(#clipPath20)"
           id="g16"><path
             id="path22"
             style="fill:#454547;fill-opacity:1;fill-rule:nonzero;stroke:none"
             d="m 1889.93,174.398 11.98,-60.429 c 2.55,-13.258 5.1,-26.5081 6.63,-39.2698 h 1.02 c 1.79,12.7617 4.84,27.0388 7.66,38.7618 l 14.27,60.937 h 15.04 l 13.52,-59.148 c 3.06,-13.77 5.87,-26.7812 7.9,-40.5508 h 1.02 c 1.53,13.0117 3.82,25.7618 6.64,39.7808 l 11.72,59.918 h 19.63 l -31.1,-123.4097 h -16.07 l -14.27,59.9337 c -3.07,11.976 -4.85,22.937 -6.89,36.969 h -0.5 c -2.05,-14.539 -4.34,-26.02 -7.14,-37.75 l -14.8,-59.1527 h -16.57 l -30.09,123.4097 h 20.4" /><path
             id="path24"
             style="fill:#454547;fill-opacity:1;fill-rule:nonzero;stroke:none"
             d="m 2052.11,174.398 11.98,-60.429 c 2.55,-13.258 5.1,-26.5081 6.63,-39.2698 h 1.02 c 1.79,12.7617 4.84,27.0388 7.65,38.7618 l 14.28,60.937 h 15.04 l 13.52,-59.148 c 3.05,-13.77 5.87,-26.7812 7.9,-40.5508 h 1.02 c 1.53,13.0117 3.82,25.7618 6.63,39.7808 l 11.73,59.918 h 19.63 l -31.1,-123.4097 h -16.07 l -14.27,59.9337 c -3.07,11.976 -4.85,22.937 -6.89,36.969 h -0.51 c -2.04,-14.539 -4.33,-26.02 -7.14,-37.75 l -14.79,-59.1527 h -16.57 l -30.09,123.4097 h 20.4" /><path
             id="path26"
             style="fill:#454547;fill-opacity:1;fill-rule:nonzero;stroke:none"
             d="m 2214.28,174.398 11.99,-60.429 c 2.55,-13.258 5.1,-26.5081 6.62,-39.2698 h 1.03 c 1.78,12.7617 4.84,27.0388 7.64,38.7618 l 14.28,60.937 h 15.05 l 13.51,-59.148 c 3.06,-13.77 5.86,-26.7812 7.9,-40.5508 h 1.02 c 1.53,13.0117 3.83,25.7618 6.63,39.7808 l 11.73,59.918 h 19.64 L 2300.21,50.9883 h -16.07 l -14.28,59.9337 c -3.05,11.976 -4.84,22.937 -6.88,36.969 h -0.51 c -2.04,-14.539 -4.34,-26.02 -7.14,-37.75 l -14.78,-59.1527 h -16.58 l -30.08,123.4097 h 20.39" /><path
             id="path28"
             style="fill:#454547;fill-opacity:1;fill-rule:nonzero;stroke:none"
             d="m 2349.18,63.7383 c 0,8.6719 5.86,14.7929 13,14.7929 7.64,0 13.01,-5.871 13.01,-14.7929 0,-8.918 -4.85,-14.7891 -13.27,-14.7891 -7.13,0 -12.74,5.8711 -12.74,14.7891" /><path
             id="path30"
             style="fill:#454547;fill-opacity:1;fill-rule:nonzero;stroke:none"
             d="m 2412.67,50.9883 h 19.6289 v 176.453 H 2412.67 Z" /><path
             id="path32"
             style="fill:#454547;fill-opacity:1;fill-rule:nonzero;stroke:none"
             d="m 2488.4,112.691 c 0,-20.3902 3.57,-48.1793 21.41,-48.1793 16.84,0 20.4,28.8086 20.4,48.1793 0,18.879 -3.56,47.938 -20.9,47.938 -17.59,0 -20.91,-29.059 -20.91,-47.938 z m 61.45,0 c 0,-47.6715 -21.93,-63.7418 -41.05,-63.7418 -22.18,0 -40.03,20.1524 -40.03,63.4918 0,44.879 20.15,63.75 41.31,63.75 22.18,0 39.77,-20.66 39.77,-63.5" /><path
             id="path34"
             style="fill:#454547;fill-opacity:1;fill-rule:nonzero;stroke:none"
             d="m 2639.61,131.82 c 0,3.059 -0.25,6.371 -1.02,8.918 -2.04,8.422 -6.63,18.614 -17.85,18.614 -14.28,0 -21.92,-19.122 -21.92,-46.391 0,-31.3712 9.94,-45.6524 21.92,-45.6524 6.13,0 13.77,2.8008 17.6,17.6016 1.02,3.8203 1.27,7.6484 1.27,11.2109 z m 19.38,-65.0192 c 0,-32.3789 -4.08,-44.6211 -12.24,-53.7891 C 2639.36,4.83984 2627.88,0 2613.86,0 c -10.45,0 -20.66,2.55078 -27.02,6.12109 l 4.59,15.28911 c 4.84,-2.5508 12.99,-5.3516 22.94,-5.3516 15.55,0 25.24,9.6914 25.24,37.7422 v 12.5 h -0.51 c -4.08,-9.6992 -13.26,-15.0508 -23.71,-15.0508 -21.93,0 -36.21,24.7305 -36.21,60.93 0,45.398 20.65,64.011 39.01,64.011 13.01,0 19.12,-8.671 22.95,-15.562 h 0.51 l 1.03,13.769 h 17.33 c -0.25,-8.418 -1.02,-19.367 -1.02,-38.5 V 66.8008" /><path
             id="path36"
             style="fill:#454547;fill-opacity:1;fill-rule:nonzero;stroke:none"
             d="m 2713.31,112.691 c 0,-20.3902 3.57,-48.1793 21.41,-48.1793 16.83,0 20.41,28.8086 20.41,48.1793 0,18.879 -3.58,47.938 -20.92,47.938 -17.58,0 -20.9,-29.059 -20.9,-47.938 z m 61.45,0 c 0,-47.6715 -21.94,-63.7418 -41.06,-63.7418 -22.17,0 -40.03,20.1524 -40.03,63.4918 0,44.879 20.15,63.75 41.32,63.75 22.17,0 39.77,-20.66 39.77,-63.5" /><path
             id="path38"
             style="fill:#454547;fill-opacity:1;fill-rule:nonzero;stroke:none"
             d="m 2861.96,125.449 c 0.26,24.473 -8.92,35.442 -18.36,35.442 -12.98,0 -19.37,-18.621 -20.13,-35.442 z m -38.75,-14.527 c 0,-38.0001 15.04,-45.9025 29.07,-45.9025 8.67,0 15.56,2.0391 20.41,4.5899 l 3.3,-14.2813 c -6.88,-3.5664 -17.33,-5.8672 -27.27,-5.8672 -29.59,0 -44.88,24.2305 -44.88,61.9611 0,39.777 17.09,64.769 41.81,64.769 24.98,0 35.18,-26.519 35.18,-54.05 0,-4.86 -0.25,-8.172 -0.51,-11.219 h -57.11" /><path
             id="path40"
             style="fill:#454547;fill-opacity:1;fill-rule:nonzero;stroke:none"
             d="m 2933.88,96.1211 c 0,-3.5625 0.25,-7.1406 1.01,-10.1992 3.83,-17.5899 12.76,-20.6524 18.11,-20.6524 16.33,0 21.68,22.4414 21.68,47.1715 0,25.5 -6.12,46.911 -21.94,46.911 -8.92,0 -17.07,-10.954 -18.1,-22.18 -0.51,-2.801 -0.76,-6.121 -0.76,-9.434 z m -19.38,39.7769 c 0,18.872 -0.76,29.832 -1.01,38.5 h 17.34 l 1.02,-15.808 h 0.5 c 6.88,13.012 16.57,17.601 26.25,17.601 21.68,0 35.71,-22.703 35.71,-63.23 0,-45.9024 -18.87,-64.0118 -38.25,-64.0118 -11.73,0 -18.35,7.3906 -21.68,14.2813 h -0.5 V 2.03906 H 2914.5 V 135.898" /><path
             id="path42"
             style="fill:#454547;fill-opacity:1;fill-rule:nonzero;stroke:none"
             d="m 3025.93,71.3906 c 4.33,-2.8008 11.99,-6.3711 19.9,-6.3711 10.96,0 18.11,6.8789 18.11,17.8516 0,9.4297 -3.32,15.8008 -15.82,24.2189 -16.06,10.191 -24.73,20.91 -24.73,34.93 0,20.152 14.78,34.171 33.9,34.171 9.69,0 16.84,-3.32 21.94,-6.382 l -5.1,-14.778 c -4.84,3.309 -9.94,5.598 -16.58,5.598 -10.45,0 -15.8,-7.641 -15.8,-15.809 0,-8.148 3.04,-12.738 15.29,-21.16 14.28,-9.18 25.51,-20.398 25.51,-37.4803 0,-24.7383 -16.84,-36.7188 -37.23,-36.7188 -8.92,0 -18.88,2.8086 -24.24,7.1407 l 4.85,14.789" /><path
             id="path44"
             style="fill:#454547;fill-opacity:1;fill-rule:nonzero;stroke:none"
             d="m 3111.1,63.7383 c 0,8.6719 5.86,14.7929 13.01,14.7929 7.64,0 13.01,-5.871 13.01,-14.7929 0,-8.918 -4.84,-14.7891 -13.26,-14.7891 -7.15,0 -12.76,5.8711 -12.76,14.7891" /><path
             id="path46"
             style="fill:#454547;fill-opacity:1;fill-rule:nonzero;stroke:none"
             d="m 3234.78,54.0508 c -4.34,-2.5508 -11.74,-4.5899 -20.41,-4.5899 -27.02,0 -45.12,21.6797 -45.12,62.4691 0,35.441 17.85,64.261 48.69,64.261 6.64,0 13.77,-1.793 17.34,-3.832 l -3.82,-16.058 c -2.56,1.277 -7.66,3.32 -14.03,3.32 -19.88,0 -28.55,-23.461 -28.55,-47.691 0,-28.8089 10.95,-46.1488 29.06,-46.1488 5.1,0 9.69,1.0196 14.02,3.3204 l 2.82,-15.0508" /><path
             id="path48"
             style="fill:#454547;fill-opacity:1;fill-rule:nonzero;stroke:none"
             d="m 3277.1,112.691 c 0,-20.3902 3.57,-48.1793 21.43,-48.1793 16.81,0 20.39,28.8086 20.39,48.1793 0,18.879 -3.58,47.938 -20.9,47.938 -17.6,0 -20.92,-29.059 -20.92,-47.938 z m 61.44,0 c 0,-47.6715 -21.91,-63.7418 -41.03,-63.7418 -22.19,0 -40.04,20.1524 -40.04,63.4918 0,44.879 20.14,63.75 41.31,63.75 22.19,0 39.76,-20.66 39.76,-63.5" /><path
             id="path50"
             style="fill:#454547;fill-opacity:1;fill-rule:nonzero;stroke:none"
             d="m 3373.23,142.531 c 0,14.539 -0.76,21.93 -1.01,31.867 h 17.09 l 1.01,-15.296 h 0.51 c 5.35,9.949 14.79,17.089 27.79,17.089 11.49,0 21.17,-5.359 25.76,-18.871 h 0.51 c 3.3,6.11 7.64,11.211 12.23,14.02 4.84,3.32 10.72,4.851 17.09,4.851 16.58,0 29.57,-11.98 29.57,-43.601 V 50.9883 H 3484.4 V 128.25 c 0,16.059 -2.28,31.621 -17.34,31.621 -8.14,0 -15.29,-6.883 -18.09,-18.609 -0.52,-3.071 -0.78,-6.891 -0.78,-10.973 V 50.9883 h -19.37 V 131.82 c 0,13.508 -2.29,28.051 -17.07,28.051 -8.17,0 -16.08,-6.883 -18.36,-20.152 -0.51,-3.047 -0.78,-6.629 -0.78,-10.449 V 50.9883 h -19.38 v 91.5427" /><path
             id="path52"
             style="fill:#848585;fill-opacity:1;fill-rule:nonzero;stroke:none"
             d="m 0,288.309 v 11 l 11.8867,16.281 c 17.1563,23.762 37.1875,50.609 37.1875,77.449 0,15.84 -6.8281,25.52 -20.2461,25.52 -10.3437,0 -17.1679,-5.5 -20.68357,-7.918 L 3.96484,423.41 c 4.84375,4.18 14.96096,9.68 27.94136,9.68 23.7657,0 33.8829,-17.602 33.8829,-39.168 0,-26.84 -17.3829,-52.801 -35.2032,-77.012 L 21.1211,303.711 V 303.27 H 68.6523 V 288.309 H 0" /><path
             id="path54"
             style="fill:#848585;fill-opacity:1;fill-rule:nonzero;stroke:none"
             d="m 111.328,359.82 c -0.223,-34.55 5.711,-58.75 19.793,-58.75 13.645,0 19.152,24.43 19.152,58.75 0,33.442 -5.507,58.739 -19.152,58.739 -13.855,0 -19.793,-24.2 -19.793,-58.739 z m 55.879,0.219 c 0,-52.148 -16.492,-73.488 -37.18,-73.488 -22.222,0 -35.6403,26.41 -35.6403,73.051 0,48.179 14.2973,73.488 37.6173,73.488 23.101,0 35.203,-27.508 35.203,-73.051" /><path
             id="path56"
             style="fill:#848585;fill-opacity:1;fill-rule:nonzero;stroke:none"
             d="m 207.02,359.82 c -0.223,-34.55 5.722,-58.75 19.804,-58.75 13.645,0 19.145,24.43 19.145,58.75 0,33.442 -5.5,58.739 -19.145,58.739 -13.863,0 -19.804,-24.2 -19.804,-58.739 z m 55.89,0.219 c 0,-52.148 -16.504,-73.488 -37.187,-73.488 -22.215,0 -35.645,26.41 -35.645,73.051 0,48.179 14.309,73.488 37.625,73.488 23.109,0 35.207,-27.508 35.207,-73.051" /><path
             id="path58"
             style="fill:#848585;fill-opacity:1;fill-rule:nonzero;stroke:none"
             d="m 283.574,260.582 c 4.617,12.77 10.567,36.09 12.766,51.27 l 19.14,2.199 c -5.058,-17.821 -14.296,-42.25 -20.246,-51.922 l -11.66,-1.547" /><path
             id="path60"
             style="fill:#848585;fill-opacity:1;fill-rule:nonzero;stroke:none"
             d="m 356.395,359.82 c -0.223,-34.55 5.722,-58.75 19.804,-58.75 13.645,0 19.145,24.43 19.145,58.75 0,33.442 -5.5,58.739 -19.145,58.739 -13.863,0 -19.804,-24.2 -19.804,-58.739 z m 55.89,0.219 c 0,-52.148 -16.504,-73.488 -37.187,-73.488 -22.215,0 -35.645,26.41 -35.645,73.051 0,48.179 14.309,73.488 37.625,73.488 23.11,0 35.207,-27.508 35.207,-73.051" /><path
             id="path62"
             style="fill:#848585;fill-opacity:1;fill-rule:nonzero;stroke:none"
             d="m 452.102,359.82 c -0.227,-34.55 5.71,-58.75 19.793,-58.75 13.64,0 19.152,24.43 19.152,58.75 0,33.442 -5.512,58.739 -19.152,58.739 -13.86,0 -19.793,-24.2 -19.793,-58.739 z m 55.878,0.219 c 0,-52.148 -16.496,-73.488 -37.179,-73.488 -22.227,0 -35.645,26.41 -35.645,73.051 0,48.179 14.297,73.488 37.617,73.488 23.106,0 35.207,-27.508 35.207,-73.051" /><path
             id="path64"
             style="fill:#848585;fill-opacity:1;fill-rule:nonzero;stroke:none"
             d="m 547.805,359.82 c -0.227,-34.55 5.711,-58.75 19.793,-58.75 13.64,0 19.148,24.43 19.148,58.75 0,33.442 -5.508,58.739 -19.148,58.739 -13.86,0 -19.793,-24.2 -19.793,-58.739 z m 55.879,0.219 c 0,-52.148 -16.496,-73.488 -37.18,-73.488 -22.227,0 -35.645,26.41 -35.645,73.051 0,48.179 14.297,73.488 37.618,73.488 23.105,0 35.207,-27.508 35.207,-73.051" /><path
             id="path66"
             style="fill:#848585;fill-opacity:1;fill-rule:nonzero;stroke:none"
             d="m 692.559,405.582 v -52.363 h 50.617 V 341.121 H 692.559 V 288.309 H 680.02 v 52.812 h -50.379 v 12.098 h 50.379 v 52.363 h 12.539" /><path
             id="path68"
             style="fill:#848585;fill-opacity:1;fill-rule:nonzero;stroke:none"
             d="m 836.648,325.711 c 0,-2.422 0.227,-4.621 0.664,-6.602 3.958,-15.621 11.223,-18.48 16.067,-18.48 13.641,0 18.476,18.48 18.476,41.141 0,21.351 -5.058,40.05 -18.917,40.05 -7.926,0 -14.305,-9.679 -15.848,-18.922 -0.215,-2.418 -0.442,-4.847 -0.442,-7.257 z M 819.934,440.57 h 16.714 v -58.531 h 0.442 c 5.508,10.563 13.43,14.301 22.668,14.301 16.719,0 29.043,-18.918 29.043,-53.899 0,-38.293 -15.84,-55.89 -32.348,-55.89 -11.219,0 -16.941,6.597 -21.121,15.621 h -0.879 l -1.101,-13.863 h -14.297 c 0.215,6.16 0.879,18.261 0.879,25.531 v 126.73" /><path
             id="path70"
             style="fill:#848585;fill-opacity:1;fill-rule:nonzero;stroke:none"
             d="m 918.711,367.301 c 0,9.019 -0.664,19.578 -0.879,27.5 h 15.176 l 0.887,-16.942 h 0.441 c 3.516,10.129 12.539,18.481 22.441,18.481 1.321,0 2.422,0 3.516,-0.219 v -17.16 c -1.094,0 -2.195,0 -3.516,0 -10.781,0 -18.703,-9.902 -20.468,-22 -0.442,-2.859 -0.657,-6.16 -0.657,-9.691 v -58.961 h -16.941 v 78.992" /><path
             id="path72"
             style="fill:#848585;fill-opacity:1;fill-rule:nonzero;stroke:none"
             d="m 1022.77,343.531 c -8.81,0 -29.262,-1.761 -29.262,-24.859 0,-14.082 7.042,-18.922 12.972,-18.922 7.48,0 13.65,5.5 15.63,16.059 0.44,1.98 0.66,4.179 0.66,6.16 z m 16.5,-31.019 c 0,-8.141 0.22,-17.391 1.1,-24.203 h -15.18 l -1.1,11.222 h -0.66 c -4.62,-8.152 -12.1,-12.98 -21.34,-12.98 -14.082,0 -25.086,11.871 -25.086,30.359 0,26.852 21.348,38.512 45.326,38.731 v 3.3 c 0,14.297 -3.75,23.981 -16.94,23.981 -6.601,0 -12.546,-1.981 -17.609,-5.5 l -3.738,11.879 c 4.617,3.301 14.309,7.039 24.867,7.039 21.34,0 30.36,-13.86 30.36,-37.621 v -46.207" /><path
             id="path74"
             style="fill:#848585;fill-opacity:1;fill-rule:nonzero;stroke:none"
             d="m 1074.25,367.301 c 0,12.539 -0.67,18.918 -0.88,27.5 h 14.74 l 0.88,-12.981 h 0.44 c 4.62,8.578 13.2,14.52 24.43,14.52 14.73,0 25.74,-10.781 25.74,-36.52 v -71.511 h -16.94 v 68.429 c 0,12.762 -2.43,25.301 -14.75,25.301 -7.04,0 -13.86,-5.937 -15.84,-17.16 -0.66,-2.649 -0.88,-5.938 -0.88,-9.68 v -66.89 h -16.94 v 78.992" /><path
             id="path76"
             style="fill:#848585;fill-opacity:1;fill-rule:nonzero;stroke:none"
             d="m 1221.65,354.102 c 0,2.199 0,4.839 -0.21,7.039 -1.11,11.218 -7.71,20.679 -15.85,20.679 -14.09,0 -18.92,-19.59 -18.92,-40.699 0,-22.449 5.72,-40.492 18.04,-40.492 5.28,0 12.55,2.859 16.29,18.262 0.44,1.988 0.65,4.398 0.65,7.039 z m 16.73,86.468 V 313.84 c 0,-7.27 0.65,-19.371 0.88,-25.531 h -14.52 l -1.11,13.203 h -0.66 c -3.52,-7.481 -11,-14.961 -22.44,-14.961 -17.82,0 -30.8,19.359 -30.8,54.57 0,37.617 15.62,55.219 31.9,55.219 7.92,0 15.4,-3.52 19.58,-12.531 h 0.44 v 56.761 h 16.73" /><path
             id="path78"
             style="fill:#848585;fill-opacity:1;fill-rule:nonzero;stroke:none"
             d="m 1318.66,288.309 h 16.9492 V 440.571 H 1318.66 Z" /><path
             id="path80"
             style="fill:#848585;fill-opacity:1;fill-rule:nonzero;stroke:none"
             d="m 1384,341.559 c 0,-17.61 3.08,-41.59 18.48,-41.59 14.52,0 17.61,24.863 17.61,41.59 0,16.281 -3.09,41.363 -18.05,41.363 -15.17,0 -18.04,-25.082 -18.04,-41.363 z m 53.03,0 c 0,-41.149 -18.92,-55.008 -35.43,-55.008 -19.14,0 -34.54,17.379 -34.54,54.789 0,38.73 17.38,55 35.65,55 19.14,0 34.32,-17.82 34.32,-54.781" /><path
             id="path82"
             style="fill:#848585;fill-opacity:1;fill-rule:nonzero;stroke:none"
             d="m 1514.46,358.051 c 0,2.648 -0.21,5.508 -0.88,7.711 -1.75,7.258 -5.72,16.058 -15.4,16.058 -12.32,0 -18.92,-16.5 -18.92,-40.05 0,-27.059 8.58,-39.379 18.92,-39.379 5.29,0 11.89,2.418 15.19,15.187 0.88,3.301 1.09,6.602 1.09,9.672 z m 16.73,-56.102 c 0,-27.949 -3.52,-38.508 -10.56,-46.429 -6.38,-7.04 -16.28,-11.219 -28.38,-11.219 -9.03,0 -17.83,2.199 -23.33,5.281 l 3.96,13.199 c 4.18,-2.199 11.22,-4.621 19.81,-4.621 13.41,0 21.77,8.36 21.77,32.57 v 10.782 h -0.44 c -3.51,-8.364 -11.43,-12.981 -20.46,-12.981 -18.92,0 -31.25,21.34 -31.25,52.59 0,39.16 17.83,55.219 33.68,55.219 11.22,0 16.49,-7.481 19.79,-13.418 h 0.44 l 0.89,11.879 h 14.96 c -0.22,-7.25 -0.88,-16.719 -0.88,-33.223 v -59.629" /><path
             id="path84"
             style="fill:#848585;fill-opacity:1;fill-rule:nonzero;stroke:none"
             d="m 1578.04,341.559 c 0,-17.61 3.08,-41.59 18.48,-41.59 14.52,0 17.6,24.863 17.6,41.59 0,16.281 -3.08,41.363 -18.04,41.363 -15.18,0 -18.04,-25.082 -18.04,-41.363 z m 53.02,0 c 0,-41.149 -18.91,-55.008 -35.42,-55.008 -19.15,0 -34.55,17.379 -34.55,54.789 0,38.73 17.39,55 35.65,55 19.15,0 34.32,-17.82 34.32,-54.781" /><path
             id="path86"
             style="fill:#848585;fill-opacity:1;fill-rule:nonzero;stroke:none"
             d="m 1658.12,305.91 c 3.74,-2.422 10.34,-5.5 17.15,-5.5 9.47,0 15.63,5.942 15.63,15.399 0,8.14 -2.86,13.64 -13.64,20.91 -13.86,8.793 -21.34,18.031 -21.34,30.14 0,17.391 12.76,29.481 29.26,29.481 8.36,0 14.52,-2.86 18.92,-5.488 l -4.4,-12.77 c -4.18,2.859 -8.58,4.84 -14.3,4.84 -9.02,0 -13.64,-6.602 -13.64,-13.641 0,-7.051 2.63,-11 13.2,-18.269 12.33,-7.922 22,-17.59 22,-32.34 0,-21.34 -14.52,-31.684 -32.13,-31.684 -7.69,0 -16.28,2.422 -20.89,6.16 l 4.18,12.762" /><path
             id="path88"
             style="fill:#848585;fill-opacity:1;fill-rule:nonzero;stroke:none"
             d="m 1781.09,288.309 v 106.492 h 16.95 V 288.309 Z m 18.27,134 c 0,-6.598 -3.97,-11 -10.35,-11 -5.49,0 -9.67,4.402 -9.67,11 0,6.589 4.39,11 9.9,11 6.15,0 10.12,-4.411 10.12,-11" /><path
             id="path90"
             style="fill:#848585;fill-opacity:1;fill-rule:nonzero;stroke:none"
             d="m 1832.57,367.301 c 0,12.539 -0.67,18.918 -0.88,27.5 h 14.74 l 0.88,-12.981 h 0.44 c 4.62,8.578 13.2,14.52 24.43,14.52 14.73,0 25.74,-10.781 25.74,-36.52 v -71.511 h -16.94 v 68.429 c 0,12.762 -2.43,25.301 -14.75,25.301 -7.04,0 -13.86,-5.937 -15.84,-17.16 -0.66,-2.649 -0.88,-5.938 -0.88,-9.68 v -66.89 h -16.94 v 78.992" /><path
             id="path92"
             style="fill:#848585;fill-opacity:1;fill-rule:nonzero;stroke:none"
             d="m 1986.79,394.801 13.42,-59.84 c 1.54,-7.27 3.31,-16.731 4.62,-25.973 h 0.66 c 1.1,8.801 2.86,17.821 4.4,25.973 l 13.21,59.84 h 16.71 l -27.93,-106.492 h -14.97 l -27.72,106.492 h 17.6" /><path
             id="path94"
             style="fill:#848585;fill-opacity:1;fill-rule:nonzero;stroke:none"
             d="m 2108.02,352.559 c 0.21,21.121 -7.71,30.582 -15.84,30.582 -11.22,0 -16.73,-16.059 -17.39,-30.582 z m -33.45,-12.539 c 0,-32.79 12.98,-39.61 25.09,-39.61 7.48,0 13.42,1.762 17.6,3.961 l 2.86,-12.32 c -5.94,-3.082 -14.96,-5.063 -23.55,-5.063 -25.52,0 -38.72,20.903 -38.72,53.473 0,34.32 14.74,55.879 36.09,55.879 21.56,0 30.36,-22.879 30.36,-46.649 0,-4.179 -0.22,-7.043 -0.44,-9.671 h -49.29" /><path
             id="path96"
             style="fill:#848585;fill-opacity:1;fill-rule:nonzero;stroke:none"
             d="m 2205.48,290.941 c -3.74,-2.191 -10.13,-3.953 -17.61,-3.953 -23.32,0 -38.94,18.703 -38.94,53.91 0,30.582 15.4,55.442 42.03,55.442 5.72,0 11.87,-1.539 14.96,-3.301 l -3.3,-13.859 c -2.2,1.101 -6.6,2.859 -12.1,2.859 -17.17,0 -24.65,-20.25 -24.65,-41.141 0,-24.867 9.46,-39.828 25.09,-39.828 4.39,0 8.36,0.879 12.1,2.86 l 2.42,-12.989" /><path
             id="path98"
             style="fill:#848585;fill-opacity:1;fill-rule:nonzero;stroke:none"
             d="m 2254.97,419.672 v -24.871 h 20.46 v -12.762 h -20.46 v -63.367 c 0,-13.863 4.83,-17.602 11,-17.602 2.86,0 5.06,0.219 6.82,0.66 l 0.88,-12.98 c -3.08,-1.109 -7.04,-1.762 -12.54,-1.762 -6.82,0 -12.77,1.762 -16.73,6.383 -4.4,4.84 -6.38,12.098 -6.38,26.84 v 61.828 h -12.98 v 12.762 h 12.98 v 18.051 l 16.95,6.82" /><path
             id="path100"
             style="fill:#848585;fill-opacity:1;fill-rule:nonzero;stroke:none"
             d="m 2311.94,341.559 c 0,-17.61 3.09,-41.59 18.49,-41.59 14.52,0 17.61,24.863 17.61,41.59 0,16.281 -3.09,41.363 -18.05,41.363 -15.19,0 -18.05,-25.082 -18.05,-41.363 z m 53.03,0 c 0,-41.149 -18.92,-55.008 -35.42,-55.008 -19.14,0 -34.54,17.379 -34.54,54.789 0,38.73 17.37,55 35.64,55 19.14,0 34.32,-17.82 34.32,-54.781" /><path
             id="path102"
             style="fill:#848585;fill-opacity:1;fill-rule:nonzero;stroke:none"
             d="m 2394.66,367.301 c 0,9.019 -0.66,19.578 -0.88,27.5 h 15.18 l 0.88,-16.942 h 0.44 c 3.52,10.129 12.54,18.481 22.44,18.481 1.32,0 2.43,0 3.53,-0.219 v -17.16 c -1.1,0 -2.21,0 -3.53,0 -10.78,0 -18.7,-9.902 -20.45,-22 -0.44,-2.859 -0.67,-6.16 -0.67,-9.691 v -58.961 h -16.94 v 78.992" /><path
             id="path104"
             style="fill:#848585;fill-opacity:1;fill-rule:nonzero;stroke:none"
             d="m 2509.5,288.309 v 93.73 h -13.42 v 12.762 h 13.42 v 6.39 c 0,11.661 1.76,23.321 9.46,32.118 6.17,6.82 14.75,9.023 21.35,9.023 5.72,0 10.12,-1.102 13.2,-2.641 l -2.64,-13.203 c -2.2,0.883 -5.06,1.762 -9.46,1.762 -12.1,0 -14.96,-12.98 -14.96,-26.621 v -6.828 h 19.36 v -12.762 h -19.36 v -93.73 h -16.95" /><path
             id="path106"
             style="fill:#848585;fill-opacity:1;fill-rule:nonzero;stroke:none"
             d="m 2578.8,341.559 c 0,-17.61 3.08,-41.59 18.49,-41.59 14.52,0 17.6,24.863 17.6,41.59 0,16.281 -3.08,41.363 -18.04,41.363 -15.19,0 -18.05,-25.082 -18.05,-41.363 z m 53.03,0 c 0,-41.149 -18.92,-55.008 -35.42,-55.008 -19.14,0 -34.54,17.379 -34.54,54.789 0,38.73 17.37,55 35.64,55 19.14,0 34.32,-17.82 34.32,-54.781" /><path
             id="path108"
             style="fill:#848585;fill-opacity:1;fill-rule:nonzero;stroke:none"
             d="m 2661.52,367.301 c 0,9.019 -0.65,19.578 -0.88,27.5 h 15.19 l 0.88,-16.942 h 0.44 c 3.51,10.129 12.54,18.481 22.44,18.481 1.32,0 2.42,0 3.53,-0.219 v -17.16 c -1.11,0 -2.21,0 -3.53,0 -10.78,0 -18.7,-9.902 -20.46,-22 -0.44,-2.859 -0.66,-6.16 -0.66,-9.691 v -58.961 h -16.95 v 78.992" /><path
             id="path110"
             style="fill:#848585;fill-opacity:1;fill-rule:nonzero;stroke:none"
             d="m 2727.31,367.301 c 0,12.539 -0.66,18.918 -0.87,27.5 h 14.72 l 0.88,-13.199 h 0.45 c 4.63,8.578 12.75,14.738 23.98,14.738 9.91,0 18.27,-4.61 22.23,-16.27 h 0.43 c 2.87,5.27 6.6,9.668 10.57,12.102 4.18,2.859 9.24,4.168 14.74,4.168 14.3,0 25.53,-10.34 25.53,-37.621 v -70.41 h -16.74 v 66.671 c 0,13.86 -1.97,27.282 -14.96,27.282 -7.03,0 -13.2,-5.942 -15.62,-16.063 -0.43,-2.64 -0.65,-5.937 -0.65,-9.461 v -68.429 h -16.72 v 69.742 c 0,11.668 -1.99,24.211 -14.74,24.211 -7.05,0 -13.87,-5.942 -15.84,-17.383 -0.45,-2.649 -0.67,-5.719 -0.67,-9.02 v -67.55 h -16.72 v 78.992" /><path
             id="path112"
             style="fill:#848585;fill-opacity:1;fill-rule:nonzero;stroke:none"
             d="m 2914.31,343.531 c -8.81,0 -29.26,-1.761 -29.26,-24.859 0,-14.082 7.03,-18.922 12.97,-18.922 7.48,0 13.65,5.5 15.62,16.059 0.45,1.98 0.67,4.179 0.67,6.16 z m 16.5,-31.019 c 0,-8.141 0.22,-17.391 1.09,-24.203 h -15.17 l -1.1,11.222 h -0.66 c -4.63,-8.152 -12.11,-12.98 -21.35,-12.98 -14.08,0 -25.08,11.871 -25.08,30.359 0,26.852 21.33,38.512 45.32,38.731 v 3.3 c 0,14.297 -3.73,23.981 -16.94,23.981 -6.6,0 -12.54,-1.981 -17.59,-5.5 l -3.75,11.879 c 4.63,3.301 14.29,7.039 24.86,7.039 21.35,0 30.37,-13.86 30.37,-37.621 v -46.207" /><path
             id="path114"
             style="fill:#848585;fill-opacity:1;fill-rule:nonzero;stroke:none"
             d="m 2984.48,419.672 v -24.871 h 20.47 v -12.762 h -20.47 v -63.367 c 0,-13.863 4.85,-17.602 11,-17.602 2.87,0 5.06,0.219 6.83,0.66 l 0.88,-12.98 c -3.08,-1.109 -7.05,-1.762 -12.54,-1.762 -6.83,0 -12.77,1.762 -16.73,6.383 -4.4,4.84 -6.37,12.098 -6.37,26.84 v 61.828 h -12.99 v 12.762 h 12.99 v 18.051 l 16.93,6.82" /><path
             id="path116"
             style="fill:#848585;fill-opacity:1;fill-rule:nonzero;stroke:none"
             d="m 3116.04,343.531 c -8.8,0 -29.25,-1.761 -29.25,-24.859 0,-14.082 7.03,-18.922 12.97,-18.922 7.48,0 13.65,5.5 15.62,16.059 0.45,1.98 0.66,4.179 0.66,6.16 z m 16.51,-31.019 c 0,-8.141 0.21,-17.391 1.09,-24.203 h -15.17 l -1.1,11.222 h -0.66 c -4.63,-8.152 -12.11,-12.98 -21.35,-12.98 -14.08,0 -25.08,11.871 -25.08,30.359 0,26.852 21.33,38.512 45.32,38.731 v 3.3 c 0,14.297 -3.73,23.981 -16.94,23.981 -6.6,0 -12.54,-1.981 -17.6,-5.5 l -3.75,11.879 c 4.63,3.301 14.3,7.039 24.87,7.039 21.35,0 30.37,-13.86 30.37,-37.621 v -46.207" /><path
             id="path118"
             style="fill:#848585;fill-opacity:1;fill-rule:nonzero;stroke:none"
             d="m 3173.9,394.801 13.43,-59.84 c 1.55,-7.27 3.3,-16.731 4.61,-25.973 h 0.67 c 1.09,8.801 2.85,17.821 4.39,25.973 l 13.21,59.84 h 16.71 l -27.93,-106.492 h -14.96 l -27.73,106.492 h 17.6" /><path
             id="path120"
             style="fill:#848585;fill-opacity:1;fill-rule:nonzero;stroke:none"
             d="m 3290.28,343.531 c -8.79,0 -29.25,-1.761 -29.25,-24.859 0,-14.082 7.05,-18.922 12.98,-18.922 7.48,0 13.64,5.5 15.63,16.059 0.43,1.98 0.64,4.179 0.64,6.16 z m 16.51,-31.019 c 0,-8.141 0.23,-17.391 1.11,-24.203 h -15.19 l -1.1,11.222 h -0.66 c -4.61,-8.152 -12.09,-12.98 -21.35,-12.98 -14.08,0 -25.08,11.871 -25.08,30.359 0,26.852 21.35,38.512 45.33,38.731 v 3.3 c 0,14.297 -3.75,23.981 -16.95,23.981 -6.6,0 -12.54,-1.981 -17.6,-5.5 l -3.73,11.879 c 4.61,3.301 14.3,7.039 24.87,7.039 21.32,0 30.35,-13.86 30.35,-37.621 v -46.207" /><path
             id="path122"
             style="fill:#848585;fill-opacity:1;fill-rule:nonzero;stroke:none"
             d="m 3341.77,288.309 v 106.492 h 16.93 V 288.309 Z m 18.26,134 c 0,-6.598 -3.97,-11 -10.35,-11 -5.49,0 -9.69,4.402 -9.69,11 0,6.589 4.41,11 9.9,11 6.17,0 10.14,-4.411 10.14,-11" /><path
             id="path124"
             style="fill:#848585;fill-opacity:1;fill-rule:nonzero;stroke:none"
             d="m 3393.23,288.309 h 16.9609 V 440.571 H 3393.23 Z" /><path
             id="path126"
             style="fill:#848585;fill-opacity:1;fill-rule:nonzero;stroke:none"
             d="m 3485.87,343.531 c -8.81,0 -29.26,-1.761 -29.26,-24.859 0,-14.082 7.03,-18.922 12.97,-18.922 7.48,0 13.65,5.5 15.63,16.059 0.44,1.98 0.66,4.179 0.66,6.16 z m 16.5,-31.019 c 0,-8.141 0.22,-17.391 1.1,-24.203 h -15.18 l -1.09,11.222 h -0.67 c -4.63,-8.152 -12.11,-12.98 -21.34,-12.98 -14.09,0 -25.08,11.871 -25.08,30.359 0,26.852 21.33,38.512 45.31,38.731 v 3.3 c 0,14.297 -3.73,23.981 -16.93,23.981 -6.61,0 -12.54,-1.981 -17.6,-5.5 l -3.75,11.879 c 4.63,3.301 14.3,7.039 24.86,7.039 21.35,0 30.37,-13.86 30.37,-37.621 v -46.207" /><path
             id="path128"
             style="fill:#848585;fill-opacity:1;fill-rule:nonzero;stroke:none"
             d="m 3553.84,325.711 c 0,-2.422 0.21,-4.621 0.66,-6.602 3.97,-15.621 11.21,-18.48 16.06,-18.48 13.65,0 18.49,18.48 18.49,41.141 0,21.351 -5.08,40.05 -18.92,40.05 -7.93,0 -14.32,-9.679 -15.84,-18.922 -0.24,-2.418 -0.45,-4.847 -0.45,-7.257 z m -16.72,114.859 h 16.72 v -58.531 h 0.45 c 5.49,10.563 13.42,14.301 22.65,14.301 16.72,0 29.05,-18.918 29.05,-53.899 0,-38.293 -15.84,-55.89 -32.35,-55.89 -11.23,0 -16.95,6.597 -21.13,15.621 h -0.88 l -1.09,-13.863 h -14.3 c 0.22,6.16 0.88,18.261 0.88,25.531 v 126.73" /><path
             id="path130"
             style="fill:#848585;fill-opacity:1;fill-rule:nonzero;stroke:none"
             d="m 3636.12,288.309 h 16.9375 V 440.571 H 3636.12 Z" /><path
             id="path132"
             style="fill:#848585;fill-opacity:1;fill-rule:nonzero;stroke:none"
             d="m 3734.46,352.559 c 0.22,21.121 -7.69,30.582 -15.84,30.582 -11.23,0 -16.72,-16.059 -17.38,-30.582 z m -33.45,-12.539 c 0,-32.79 12.98,-39.61 25.09,-39.61 7.48,0 13.42,1.762 17.6,3.961 l 2.85,-12.32 c -5.93,-3.082 -14.96,-5.063 -23.53,-5.063 -25.53,0 -38.73,20.903 -38.73,53.473 0,34.32 14.74,55.879 36.09,55.879 21.56,0 30.35,-22.879 30.35,-46.649 0,-4.179 -0.21,-7.043 -0.43,-9.671 h -49.29" /><path
             id="path134"
             style="fill:#848585;fill-opacity:1;fill-rule:nonzero;stroke:none"
             d="m 3846.22,419.672 v -24.871 h 20.45 v -12.762 h -20.45 v -63.367 c 0,-13.863 4.82,-17.602 11,-17.602 2.85,0 5.06,0.219 6.81,0.66 l 0.88,-12.98 c -3.08,-1.109 -7.03,-1.762 -12.54,-1.762 -6.81,0 -12.75,1.762 -16.72,6.383 -4.39,4.84 -6.38,12.098 -6.38,26.84 v 61.828 h -12.99 v 12.762 h 12.99 v 18.051 l 16.95,6.82" /><path
             id="path136"
             style="fill:#848585;fill-opacity:1;fill-rule:nonzero;stroke:none"
             d="m 3903.19,341.559 c 0,-17.61 3.09,-41.59 18.48,-41.59 14.53,0 17.62,24.863 17.62,41.59 0,16.281 -3.09,41.363 -18.05,41.363 -15.2,0 -18.05,-25.082 -18.05,-41.363 z m 53.03,0 c 0,-41.149 -18.93,-55.008 -35.43,-55.008 -19.14,0 -34.53,17.379 -34.53,54.789 0,38.73 17.38,55 35.64,55 19.14,0 34.32,-17.82 34.32,-54.781" /><path
             id="path138"
             style="fill:#848585;fill-opacity:1;fill-rule:nonzero;stroke:none"
             d="m 4078.97,354.102 c 0,2.199 0,4.839 -0.21,7.039 -1.09,11.218 -7.7,20.679 -15.84,20.679 -14.08,0 -18.93,-19.59 -18.93,-40.699 0,-22.449 5.73,-40.492 18.05,-40.492 5.27,0 12.54,2.859 16.27,18.262 0.45,1.988 0.66,4.398 0.66,7.039 z m 16.72,86.468 V 313.84 c 0,-7.27 0.67,-19.371 0.88,-25.531 h -14.51 l -1.09,13.203 h -0.67 c -3.51,-7.481 -10.99,-14.961 -22.44,-14.961 -17.83,0 -30.8,19.359 -30.8,54.57 0,37.617 15.61,55.219 31.9,55.219 7.92,0 15.41,-3.52 19.58,-12.531 h 0.43 v 56.761 h 16.72" /><path
             id="path140"
             style="fill:#848585;fill-opacity:1;fill-rule:nonzero;stroke:none"
             d="m 4142.76,341.559 c 0,-17.61 3.09,-41.59 18.48,-41.59 14.53,0 17.62,24.863 17.62,41.59 0,16.281 -3.09,41.363 -18.05,41.363 -15.19,0 -18.05,-25.082 -18.05,-41.363 z m 53.03,0 c 0,-41.149 -18.92,-55.008 -35.43,-55.008 -19.14,0 -34.53,17.379 -34.53,54.789 0,38.73 17.38,55 35.64,55 19.15,0 34.32,-17.82 34.32,-54.781" /><path
             id="path142"
             style="fill:#848585;fill-opacity:1;fill-rule:nonzero;stroke:none"
             d="m 4232.74,394.801 10.34,-52.153 c 2.2,-11.429 4.41,-22.878 5.72,-33.878 h 0.88 c 1.54,11 4.18,23.332 6.6,33.441 l 12.32,52.59 h 12.99 l 11.66,-51.039 c 2.64,-11.891 5.06,-23.114 6.82,-34.992 h 0.88 c 1.33,11.218 3.3,22.218 5.72,34.32 l 10.12,51.711 h 16.95 l -26.86,-106.492 h -13.84 l -12.33,51.711 c -2.63,10.339 -4.18,19.8 -5.93,31.902 h -0.45 c -1.76,-12.543 -3.73,-22.442 -6.16,-32.57 l -12.77,-51.043 h -14.3 l -25.95,106.492 h 17.59" /><path
             id="path144"
             style="fill:#848585;fill-opacity:1;fill-rule:nonzero;stroke:none"
             d="m 4359.7,367.301 c 0,12.539 -0.67,18.918 -0.88,27.5 h 14.72 l 0.88,-12.981 h 0.45 c 4.63,8.578 13.21,14.52 24.42,14.52 14.74,0 25.74,-10.781 25.74,-36.52 v -71.511 h -16.93 v 68.429 c 0,12.762 -2.43,25.301 -14.75,25.301 -7.03,0 -13.85,-5.937 -15.84,-17.16 -0.66,-2.649 -0.88,-5.938 -0.88,-9.68 v -66.89 h -16.93 v 78.992" /><path
             id="path146"
             style="fill:#848585;fill-opacity:1;fill-rule:nonzero;stroke:none"
             d="m 4459.79,288.309 h 16.9414 V 440.571 H 4459.79 Z" /><path
             id="path148"
             style="fill:#848585;fill-opacity:1;fill-rule:nonzero;stroke:none"
             d="m 4525.13,341.559 c 0,-17.61 3.08,-41.59 18.47,-41.59 14.53,0 17.62,24.863 17.62,41.59 0,16.281 -3.09,41.363 -18.05,41.363 -15.19,0 -18.04,-25.082 -18.04,-41.363 z m 53.02,0 c 0,-41.149 -18.92,-55.008 -35.43,-55.008 -19.14,0 -34.53,17.379 -34.53,54.789 0,38.73 17.39,55 35.65,55 19.14,0 34.31,-17.82 34.31,-54.781" /><path
             id="path150"
             style="fill:#848585;fill-opacity:1;fill-rule:nonzero;stroke:none"
             d="m 4647.67,343.531 c -8.81,0 -29.26,-1.761 -29.26,-24.859 0,-14.082 7.03,-18.922 12.97,-18.922 7.48,0 13.65,5.5 15.62,16.059 0.45,1.98 0.67,4.179 0.67,6.16 z m 16.5,-31.019 c 0,-8.141 0.21,-17.391 1.09,-24.203 h -15.17 l -1.1,11.222 h -0.66 c -4.63,-8.152 -12.11,-12.98 -21.35,-12.98 -14.08,0 -25.08,11.871 -25.08,30.359 0,26.852 21.33,38.512 45.32,38.731 v 3.3 c 0,14.297 -3.73,23.981 -16.94,23.981 -6.6,0 -12.54,-1.981 -17.59,-5.5 l -3.75,11.879 c 4.62,3.301 14.29,7.039 24.86,7.039 21.35,0 30.37,-13.86 30.37,-37.621 v -46.207" /><path
             id="path152"
             style="fill:#848585;fill-opacity:1;fill-rule:nonzero;stroke:none"
             d="m 4746.46,354.102 c 0,2.199 0,4.839 -0.24,7.039 -1.09,11.218 -7.69,20.679 -15.84,20.679 -14.08,0 -18.92,-19.59 -18.92,-40.699 0,-22.449 5.72,-40.492 18.04,-40.492 5.29,0 12.54,2.859 16.29,18.262 0.43,1.988 0.67,4.398 0.67,7.039 z m 16.71,86.468 V 313.84 c 0,-7.27 0.67,-19.371 0.88,-25.531 h -14.53 l -1.09,13.203 h -0.67 c -3.51,-7.481 -10.99,-14.961 -22.44,-14.961 -17.81,0 -30.8,19.359 -30.8,54.57 0,37.617 15.63,55.219 31.92,55.219 7.91,0 15.39,-3.52 19.57,-12.531 h 0.45 v 56.761 h 16.71" /><path
             id="path154"
             style="fill:#848585;fill-opacity:1;fill-rule:nonzero;stroke:none"
             d="m 4846.98,288.309 v 93.73 h -13.42 v 12.762 h 13.42 v 6.39 c 0,11.661 1.76,23.321 9.46,32.118 6.17,6.82 14.74,9.023 21.34,9.023 5.73,0 10.12,-1.102 13.21,-2.641 l -2.64,-13.203 c -2.21,0.883 -5.06,1.762 -9.47,1.762 -12.09,0 -14.96,-12.98 -14.96,-26.621 v -6.828 h 19.37 v -12.762 h -19.37 v -93.73 h -16.94" /><path
             id="path156"
             style="fill:#848585;fill-opacity:1;fill-rule:nonzero;stroke:none"
             d="m 4916.28,341.559 c 0,-17.61 3.09,-41.59 18.48,-41.59 14.53,0 17.61,24.863 17.61,41.59 0,16.281 -3.08,41.363 -18.04,41.363 -15.2,0 -18.05,-25.082 -18.05,-41.363 z m 53.03,0 c 0,-41.149 -18.93,-55.008 -35.43,-55.008 -19.14,0 -34.53,17.379 -34.53,54.789 0,38.73 17.38,55 35.64,55 19.14,0 34.32,-17.82 34.32,-54.781" /><path
             id="path158"
             style="fill:#848585;fill-opacity:1;fill-rule:nonzero;stroke:none"
             d="m 4998.99,367.301 c 0,9.019 -0.64,19.578 -0.87,27.5 h 15.19 l 0.88,-16.942 h 0.43 c 3.51,10.129 12.54,18.481 22.44,18.481 1.33,0 2.42,0 3.54,-0.219 v -17.16 c -1.12,0 -2.21,0 -3.54,0 -10.78,0 -18.69,-9.902 -20.45,-22 -0.45,-2.859 -0.66,-6.16 -0.66,-9.691 v -58.961 h -16.96 v 78.992" /><path
             id="path160"
             style="fill:#848585;fill-opacity:1;fill-rule:nonzero;stroke:none"
             d="m 5113.84,288.309 v 93.73 h -13.42 v 12.762 h 13.42 v 6.39 c 0,11.661 1.76,23.321 9.45,32.118 6.17,6.82 14.75,9.023 21.35,9.023 5.72,0 10.12,-1.102 13.2,-2.641 l -2.63,-13.203 c -2.21,0.883 -5.06,1.762 -9.48,1.762 -12.09,0 -14.96,-12.98 -14.96,-26.621 v -6.828 h 19.38 v -12.762 h -19.38 v -93.73 h -16.93" /><path
             id="path162"
             style="fill:#848585;fill-opacity:1;fill-rule:nonzero;stroke:none"
             d="m 5171.26,367.301 c 0,9.019 -0.66,19.578 -0.88,27.5 h 15.18 l 0.88,-16.942 h 0.44 c 3.52,10.129 12.54,18.481 22.45,18.481 1.3,0 2.42,0 3.51,-0.219 v -17.16 c -1.09,0 -2.21,0 -3.51,0 -10.79,0 -18.71,-9.902 -20.47,-22 -0.43,-2.859 -0.67,-6.16 -0.67,-9.691 v -58.961 h -16.93 v 78.992" /><path
             id="path164"
             style="fill:#848585;fill-opacity:1;fill-rule:nonzero;stroke:none"
             d="m 5279.29,352.559 c 0.21,21.121 -7.7,30.582 -15.84,30.582 -11.23,0 -16.72,-16.059 -17.39,-30.582 z m -33.46,-12.539 c 0,-32.79 12.99,-39.61 25.1,-39.61 7.48,0 13.42,1.762 17.6,3.961 l 2.85,-12.32 c -5.94,-3.082 -14.96,-5.063 -23.54,-5.063 -25.53,0 -38.73,20.903 -38.73,53.473 0,34.32 14.75,55.879 36.1,55.879 21.56,0 30.35,-22.879 30.35,-46.649 0,-4.179 -0.22,-7.043 -0.43,-9.671 h -49.3" /><path
             id="path166"
             style="fill:#848585;fill-opacity:1;fill-rule:nonzero;stroke:none"
             d="m 5370.15,352.559 c 0.21,21.121 -7.7,30.582 -15.84,30.582 -11.23,0 -16.72,-16.059 -17.39,-30.582 z m -33.46,-12.539 c 0,-32.79 12.99,-39.61 25.1,-39.61 7.48,0 13.42,1.762 17.59,3.961 l 2.86,-12.32 c -5.94,-3.082 -14.96,-5.063 -23.54,-5.063 -25.53,0 -38.73,20.903 -38.73,53.473 0,34.32 14.75,55.879 36.09,55.879 21.57,0 30.36,-22.879 30.36,-46.649 0,-4.179 -0.22,-7.043 -0.43,-9.671 h -49.3" /><path
             id="path168"
             style="fill:#100f0d;fill-opacity:1;fill-rule:nonzero;stroke:none"
             d="m 813.207,1911.45 h 3760 V 3112.8 h -3760 z" /><path
             id="path170"
             style="fill:#ffffff;fill-opacity:1;fill-rule:nonzero;stroke:none"
             d="m 1407.04,2890.13 c -36.88,-12.96 -63.83,-24.03 -63.83,-94.45 v -33.9 l 22.09,4.46 v 29.27 c -0.55,47.77 11.86,57.76 44.09,71.66 -0.14,9.03 -0.94,16.66 -2.35,22.96" /><path
             id="path172"
             style="fill:#ffffff;fill-opacity:1;fill-rule:nonzero;stroke:none"
             d="m 1471.25,2905.2 c 1.46,-6.81 2.63,-14.24 3.41,-22.2 57.73,8.3 56.62,-15.51 56.62,-65.23 v -18.37 l 21.85,4.48 v 13.89 c 0,77.2 -12.06,97.88 -81.88,87.43" /><path
             id="path174"
             style="fill:#ffffff;fill-opacity:1;fill-rule:nonzero;stroke:none"
             d="m 1243.75,2741.9 v 101.54 c -0.7,62.9 31.79,82.15 91.76,96.22 90.34,21.19 96.09,-37.06 96.09,-74.11 v -86.07 l 22.12,4.47 v 79.7 c -0.23,70.13 -22.09,122.64 -122.63,99.85 -54.14,-12.28 -109.42,-26.09 -109.42,-117.97 v -108.02 l 22.08,4.39" /><path
             id="path176"
             style="fill:#ffffff;fill-opacity:1;fill-rule:nonzero;stroke:none"
             d="m 1508.39,2475.05 h -170.01 v 123 l 170.01,24.9 z m 0,-173.85 -170.01,24.85 v 132.01 h 170.01 z m -186.94,173.85 h -134.86 v 102.96 l 134.86,19.05 z m 0,-147.94 -134.86,19.01 v 111.94 h 134.86 z m 342.23,472.12 -607.77,-121.53 v -442.02 l 607.77,-121.52 121.48,44.18 v 596.7 l -121.48,44.19" /><path
             id="path178"
             style="fill:#ffffff;fill-opacity:1;fill-rule:nonzero;stroke:none"
             d="m 2269.26,2558.07 h -18.42 l -71.65,242.35 c -3.59,12.28 -5.61,22.38 -6.06,30.33 h -0.9 c -0.6,-7.05 -2.92,-17 -6.96,-29.88 l -76.37,-242.8 h -18.42 l -95.68,322.09 h 24.93 l 73.45,-258.08 c 2.84,-10.18 5.16,-19.69 6.96,-28.52 h 0.9 c 0.15,1.49 0.48,3.28 1.01,5.39 0.52,2.09 29.31,95.82 86.36,281.21 h 11.23 l 73,-258.08 c 3.6,-13.18 5.91,-22.68 6.96,-28.52 h 0.9 l 1.58,6.74 77.49,279.86 h 24.03 l -94.34,-322.09" /><path
             id="path180"
             style="fill:#ffffff;fill-opacity:1;fill-rule:nonzero;stroke:none"
             d="m 2407.29,2558.07 v 230 h 20.66 v -230 z m 10.11,287.95 c -4.49,0 -8.47,1.64 -11.91,4.94 -3.44,3.29 -5.16,7.48 -5.16,12.58 0,4.94 1.75,8.95 5.27,12.01 3.52,3.07 7.45,4.61 11.8,4.61 4.64,0 8.72,-1.5 12.23,-4.49 3.52,-3.01 5.29,-7.05 5.29,-12.13 0,-4.8 -1.73,-8.91 -5.17,-12.36 -3.45,-3.44 -7.57,-5.16 -12.35,-5.16" /><path
             id="path182"
             style="fill:#ffffff;fill-opacity:1;fill-rule:nonzero;stroke:none"
             d="m 2653.35,2558.07 v 133.87 c 0,55.25 -19.92,82.87 -59.74,82.87 -21.87,0 -39.98,-8.08 -54.36,-24.26 -14.37,-16.17 -21.56,-36.3 -21.56,-60.41 v -132.07 h -20.66 v 230 h 20.66 v -41.77 h 0.9 c 16.77,31.58 42.97,47.38 78.61,47.38 25,0 44.05,-8.23 57.16,-24.71 13.11,-16.46 19.66,-40.13 19.66,-70.97 v -139.93 h -20.67" /><path
             id="path184"
             style="fill:#ffffff;fill-opacity:1;fill-rule:nonzero;stroke:none"
             d="m 2901.88,2698 c 0,22.16 -7.01,40.5 -21.01,55.03 -13.99,14.52 -31.99,21.78 -54,21.78 -24.42,0 -44.4,-9.43 -59.99,-28.3 -15.56,-18.87 -23.35,-44.1 -23.35,-75.68 0,-30.41 6.81,-54.59 20.44,-72.56 13.62,-17.97 32.11,-26.95 55.47,-26.95 24.71,0 44.63,7.75 59.75,23.25 15.14,15.5 22.69,35.67 22.69,60.53 z m 0,-139.93 v 41.78 h -0.89 c -7.64,-14.53 -18.83,-26.05 -33.6,-34.59 -14.74,-8.53 -31.17,-12.81 -49.29,-12.81 -28.75,0 -51.96,10.49 -69.63,31.44 -17.66,20.97 -26.51,49.34 -26.51,85.14 0,23.81 4.38,45.22 13.15,64.24 8.75,19 21.19,33.83 37.28,44.47 16.1,10.63 34.4,15.94 54.92,15.94 34.44,0 58.99,-14.14 73.68,-42.44 h 0.89 v 147.34 h 20.67 v -340.51 h -20.67" /><path
             id="path186"
             style="fill:#ffffff;fill-opacity:1;fill-rule:nonzero;stroke:none"
             d="m 3085.5,2774.81 c -27.09,0 -48.69,-9.17 -64.81,-27.51 -16.09,-18.35 -24.14,-43.68 -24.14,-76.02 0,-30.41 7.97,-54.67 23.93,-72.78 15.94,-18.12 37.32,-27.18 64.12,-27.18 27.4,0 48.67,8.98 63.79,26.95 15.14,17.97 22.69,42.91 22.69,74.8 0,32.93 -7.42,58.13 -22.24,75.58 -14.83,17.44 -35.94,26.16 -63.34,26.16 z m -1.56,-222.36 c -33.25,0 -59.71,10.94 -79.42,32.79 -19.69,21.87 -29.53,50.68 -29.53,86.49 0,37.57 10.08,67.3 30.22,89.16 20.13,21.86 47.2,32.79 81.19,32.79 32.79,0 58.71,-10.78 77.71,-32.34 19.02,-21.57 28.54,-51.14 28.54,-88.72 0,-35.93 -9.89,-64.96 -29.65,-87.04 -19.77,-22.09 -46.13,-33.13 -79.06,-33.13" /><path
             id="path188"
             style="fill:#ffffff;fill-opacity:1;fill-rule:nonzero;stroke:none"
             d="m 3440.05,2558.07 h -19.32 l -50.08,173.4 c -0.89,2.99 -2.11,9.44 -3.59,19.32 h -1.13 c -0.14,-3.01 -1.64,-9.3 -4.49,-18.87 l -56.16,-173.85 h -19.31 l -69.4,230 h 22.91 l 53.46,-183.51 c 1.48,-5.09 2.54,-11.53 3.14,-19.32 h 1.8 c 0.29,3.45 1.72,9.88 4.26,19.32 l 58.4,183.51 h 14.16 l 52.11,-183.51 c 1.19,-4.64 2.24,-11.08 3.14,-19.32 h 1.8 c 0,4.04 1.27,10.49 3.81,19.32 l 54.59,183.51 h 21.32 l -71.42,-230" /><path
             id="path190"
             style="fill:#ffffff;fill-opacity:1;fill-rule:nonzero;stroke:none"
             d="m 3539.89,2568.17 v 24.94 c 6.9,-5.99 16,-11.12 27.31,-15.39 11.29,-4.27 21.21,-6.4 29.74,-6.4 36.1,0 54.14,14.74 54.14,44.25 0,9.57 -3.63,17.93 -10.89,25.04 -7.27,7.11 -20.47,14.87 -39.65,23.24 -20.8,8.84 -35.98,18.32 -45.47,28.42 -9.51,10.11 -14.28,23.03 -14.28,38.75 0,18.26 7.09,33.27 21.23,45.03 14.16,11.75 31.86,17.63 53.13,17.63 19.61,0 36.52,-4.04 50.76,-12.13 v -23.36 c -17.23,11.08 -34.9,16.62 -53.01,16.62 -14.98,0 -27.15,-3.96 -36.5,-11.89 -9.36,-7.95 -14.05,-18.13 -14.05,-30.55 0,-8.85 1.39,-15.72 4.16,-20.66 2.78,-4.95 7.48,-9.71 14.16,-14.27 6.66,-4.57 16.35,-9.62 29.09,-15.17 24.55,-10.93 41.17,-21.03 49.86,-30.31 8.67,-9.3 13.03,-21.43 13.03,-36.39 0,-18.86 -7.05,-34.11 -21.12,-45.71 -14.08,-11.61 -32.79,-17.41 -56.15,-17.41 -22.32,0 -40.8,5.25 -55.49,15.72" /><path
             id="path192"
             style="fill:#ffffff;fill-opacity:1;fill-rule:nonzero;stroke:none"
             d="m 2026.91,2439.72 v -152.06 h 45.82 c 29.2,0 51.32,6.89 66.37,20.67 15.05,13.78 22.57,33.39 22.57,58.84 0,48.37 -27.78,72.55 -83.33,72.55 z m 0,-172.5 v -129.15 h -22.24 v 322.09 h 77.72 c 33.39,0 58.77,-7.63 76.14,-22.91 17.36,-15.27 26.05,-37.73 26.05,-67.38 0,-31 -10.07,-55.85 -30.21,-74.57 -20.14,-18.72 -47.21,-28.08 -81.19,-28.08 h -46.27" /><path
             id="path194"
             style="fill:#ffffff;fill-opacity:1;fill-rule:nonzero;stroke:none"
             d="m 2402.12,2138.07 v 137.91 c 0,27.26 -4.94,47.21 -14.82,59.87 -9.88,12.64 -25.31,18.97 -46.27,18.97 -13.93,0 -26.62,-3.74 -38.08,-11.23 -11.45,-7.49 -20.4,-18.01 -26.83,-31.55 -6.45,-13.56 -9.66,-29.09 -9.66,-46.61 v -127.36 h -20.66 v 340.51 h 20.66 v -151.83 h 0.9 c 18.26,31.29 44.62,46.94 79.06,46.94 25,0 43.99,-7.98 56.93,-23.92 12.95,-15.95 19.44,-38.97 19.44,-69.07 v -142.63 h -20.67" /><path
             id="path196"
             style="fill:#ffffff;fill-opacity:1;fill-rule:nonzero;stroke:none"
             d="m 2581.25,2354.82 c -27.1,0 -48.71,-9.17 -64.8,-27.51 -16.09,-18.35 -24.14,-43.69 -24.14,-76.03 0,-30.4 7.97,-54.66 23.92,-72.78 15.94,-18.11 37.32,-27.17 64.13,-27.17 27.4,0 48.66,8.98 63.79,26.95 15.11,17.97 22.68,42.9 22.68,74.79 0,32.94 -7.41,58.14 -22.24,75.59 -14.82,17.44 -35.93,26.16 -63.34,26.16 z m -1.57,-222.36 c -33.24,0 -59.71,10.93 -79.4,32.79 -19.69,21.87 -29.53,50.68 -29.53,86.48 0,37.58 10.07,67.3 30.2,89.17 20.14,21.86 47.21,32.79 81.2,32.79 32.8,0 58.69,-10.78 77.72,-32.35 19.01,-21.56 28.52,-51.13 28.52,-88.72 0,-35.93 -9.88,-64.95 -29.64,-87.03 -19.77,-22.09 -46.13,-33.13 -79.07,-33.13" /><path
             id="path198"
             style="fill:#ffffff;fill-opacity:1;fill-rule:nonzero;stroke:none"
             d="m 2897.16,2138.07 v 133.87 c 0,55.25 -19.9,82.88 -59.75,82.88 -21.85,0 -39.98,-8.08 -54.35,-24.26 -14.38,-16.17 -21.57,-36.3 -21.57,-60.42 v -132.07 h -20.66 v 230 h 20.66 v -41.77 h 0.9 c 16.78,31.59 42.99,47.39 78.62,47.39 25.02,0 44.06,-8.23 57.16,-24.71 13.11,-16.47 19.65,-40.13 19.65,-70.97 v -139.94 h -20.66" /><path
             id="path200"
             style="fill:#ffffff;fill-opacity:1;fill-rule:nonzero;stroke:none"
             d="m 3136.04,2271.04 c -0.89,26.65 -7.3,47.29 -19.19,61.88 -11.92,14.61 -28.21,21.9 -48.87,21.9 -21.7,0 -39.61,-7.26 -53.67,-21.79 -14.09,-14.52 -22.78,-35.18 -26.06,-61.99 z m -148.69,-18.87 c 0,-31.89 7.33,-56.67 22.02,-74.34 14.66,-17.67 34.66,-26.5 59.96,-26.5 25.91,0 51.07,9.51 75.46,28.52 v -22.01 c -23.94,-16.92 -50.52,-25.38 -79.72,-25.38 -30.26,0 -54.36,10.89 -72.33,32.68 -17.96,21.78 -26.95,51.55 -26.95,89.28 0,22.16 4.45,42.41 13.36,60.76 8.91,18.34 21.27,32.68 37.07,43.01 15.78,10.33 33.34,15.5 52.66,15.5 28,0 49.78,-9.88 65.37,-29.65 15.56,-19.77 23.36,-47.31 23.36,-82.66 v -9.21 h -170.26" /><path
             id="path202"
             style="fill:#4ca0dd;fill-opacity:1;fill-rule:nonzero;stroke:none"
             d="m 813.207,3571.45 h 3760 V 4772.8 h -3760 z" /><path
             id="path204"
             style="fill:#ffffff;fill-opacity:1;fill-rule:nonzero;stroke:none"
             d="m 1407.04,4550.13 c -36.88,-12.95 -63.83,-24.03 -63.83,-94.45 v -33.89 l 22.09,4.45 v 29.26 c -0.55,47.78 11.86,57.77 44.09,71.68 -0.14,9.02 -0.94,16.64 -2.35,22.95" /><path
             id="path206"
             style="fill:#ffffff;fill-opacity:1;fill-rule:nonzero;stroke:none"
             d="m 1471.25,4565.2 c 1.46,-6.81 2.63,-14.24 3.41,-22.2 57.73,8.3 56.62,-15.51 56.62,-65.23 v -18.37 l 21.85,4.48 v 13.89 c 0,77.2 -12.06,97.88 -81.88,87.43" /><path
             id="path208"
             style="fill:#ffffff;fill-opacity:1;fill-rule:nonzero;stroke:none"
             d="m 1243.75,4401.9 v 101.55 c -0.7,62.89 31.79,82.14 91.76,96.21 90.34,21.19 96.09,-37.05 96.09,-74.11 v -86.07 l 22.12,4.47 v 79.7 c -0.23,70.13 -22.09,122.64 -122.63,99.85 -54.14,-12.28 -109.42,-26.09 -109.42,-117.96 v -108.03 l 22.08,4.39" /><path
             id="path210"
             style="fill:#ffffff;fill-opacity:1;fill-rule:nonzero;stroke:none"
             d="m 1508.39,4135.05 h -170.01 v 123 l 170.01,24.9 z m 0,-173.85 -170.01,24.85 v 132.01 h 170.01 z m -186.94,173.85 h -134.86 v 102.97 l 134.86,19.04 z m 0,-147.94 -134.86,19.01 v 111.94 h 134.86 z m 342.23,472.12 -607.77,-121.53 v -442.02 l 607.77,-121.52 121.48,44.18 v 596.7 l -121.48,44.19" /><path
             id="path212"
             style="fill:#ffffff;fill-opacity:1;fill-rule:nonzero;stroke:none"
             d="m 2269.26,4218.07 h -18.42 l -71.65,242.35 c -3.59,12.28 -5.61,22.38 -6.06,30.32 h -0.9 c -0.6,-7.04 -2.92,-16.99 -6.96,-29.87 l -76.37,-242.8 h -18.42 l -95.68,322.09 h 24.93 l 73.45,-258.08 c 2.84,-10.18 5.16,-19.69 6.96,-28.52 h 0.9 c 0.15,1.49 0.48,3.28 1.01,5.39 0.52,2.09 29.31,95.82 86.36,281.21 h 11.23 l 73,-258.08 c 3.6,-13.18 5.91,-22.68 6.96,-28.52 h 0.9 l 1.58,6.74 77.49,279.86 h 24.03 l -94.34,-322.09" /><path
             id="path214"
             style="fill:#ffffff;fill-opacity:1;fill-rule:nonzero;stroke:none"
             d="m 2407.29,4218.07 v 230 h 20.66 v -230 z m 10.11,287.95 c -4.49,0 -8.47,1.64 -11.91,4.94 -3.44,3.29 -5.16,7.49 -5.16,12.58 0,4.94 1.75,8.94 5.27,12.01 3.52,3.07 7.45,4.61 11.8,4.61 4.64,0 8.72,-1.5 12.23,-4.49 3.52,-3 5.29,-7.05 5.29,-12.13 0,-4.8 -1.73,-8.92 -5.17,-12.36 -3.45,-3.44 -7.57,-5.16 -12.35,-5.16" /><path
             id="path216"
             style="fill:#ffffff;fill-opacity:1;fill-rule:nonzero;stroke:none"
             d="m 2653.35,4218.07 v 133.87 c 0,55.25 -19.92,82.88 -59.74,82.88 -21.87,0 -39.98,-8.09 -54.36,-24.26 -14.37,-16.18 -21.56,-36.31 -21.56,-60.42 v -132.07 h -20.66 v 230 h 20.66 v -41.78 h 0.9 c 16.77,31.59 42.97,47.39 78.61,47.39 25,0 44.05,-8.23 57.16,-24.7 13.11,-16.48 19.66,-40.14 19.66,-70.98 v -139.93 h -20.67" /><path
             id="path218"
             style="fill:#ffffff;fill-opacity:1;fill-rule:nonzero;stroke:none"
             d="m 2901.88,4358 c 0,22.16 -7.01,40.5 -21.01,55.03 -13.99,14.52 -31.99,21.79 -54,21.79 -24.42,0 -44.4,-9.44 -59.99,-28.3 -15.56,-18.88 -23.35,-44.11 -23.35,-75.69 0,-30.41 6.81,-54.59 20.44,-72.56 13.62,-17.97 32.11,-26.95 55.47,-26.95 24.71,0 44.63,7.75 59.75,23.25 15.14,15.5 22.69,35.67 22.69,60.54 z m 0,-139.93 v 41.78 h -0.89 c -7.64,-14.53 -18.83,-26.05 -33.6,-34.59 -14.74,-8.53 -31.17,-12.81 -49.29,-12.81 -28.75,0 -51.96,10.49 -69.63,31.44 -17.66,20.97 -26.51,49.34 -26.51,85.14 0,23.81 4.38,45.22 13.15,64.24 8.75,19.01 21.19,33.83 37.28,44.47 16.1,10.63 34.4,15.94 54.92,15.94 34.44,0 58.99,-14.15 73.68,-42.45 h 0.89 v 147.34 h 20.67 v -340.5 h -20.67" /><path
             id="path220"
             style="fill:#ffffff;fill-opacity:1;fill-rule:nonzero;stroke:none"
             d="m 3085.5,4434.82 c -27.09,0 -48.69,-9.18 -64.81,-27.52 -16.09,-18.35 -24.14,-43.68 -24.14,-76.02 0,-30.41 7.97,-54.67 23.93,-72.78 15.94,-18.12 37.32,-27.18 64.12,-27.18 27.4,0 48.67,8.98 63.79,26.95 15.14,17.97 22.69,42.91 22.69,74.8 0,32.93 -7.42,58.13 -22.24,75.58 -14.83,17.44 -35.94,26.17 -63.34,26.17 z m -1.56,-222.37 c -33.25,0 -59.71,10.94 -79.42,32.79 -19.69,21.87 -29.53,50.69 -29.53,86.49 0,37.57 10.08,67.3 30.22,89.16 20.13,21.86 47.2,32.79 81.19,32.79 32.79,0 58.71,-10.78 77.71,-32.34 19.02,-21.57 28.54,-51.14 28.54,-88.72 0,-35.93 -9.89,-64.96 -29.65,-87.04 -19.77,-22.09 -46.13,-33.13 -79.06,-33.13" /><path
             id="path222"
             style="fill:#ffffff;fill-opacity:1;fill-rule:nonzero;stroke:none"
             d="m 3440.05,4218.07 h -19.32 l -50.08,173.4 c -0.89,2.99 -2.11,9.44 -3.59,19.31 h -1.13 c -0.14,-2.99 -1.64,-9.29 -4.49,-18.86 l -56.16,-173.85 h -19.31 l -69.4,230 h 22.91 l 53.46,-183.51 c 1.48,-5.09 2.54,-11.52 3.14,-19.32 h 1.8 c 0.29,3.45 1.72,9.88 4.26,19.32 l 58.4,183.51 h 14.16 l 52.11,-183.51 c 1.19,-4.64 2.24,-11.08 3.14,-19.32 h 1.8 c 0,4.05 1.27,10.49 3.81,19.32 l 54.59,183.51 h 21.32 l -71.42,-230" /><path
             id="path224"
             style="fill:#ffffff;fill-opacity:1;fill-rule:nonzero;stroke:none"
             d="m 3539.89,4228.17 v 24.94 c 6.9,-5.99 16,-11.12 27.31,-15.39 11.29,-4.27 21.21,-6.4 29.74,-6.4 36.1,0 54.14,14.74 54.14,44.25 0,9.57 -3.63,17.93 -10.89,25.04 -7.27,7.11 -20.47,14.87 -39.65,23.25 -20.8,8.83 -35.98,18.3 -45.47,28.41 -9.51,10.11 -14.28,23.03 -14.28,38.75 0,18.27 7.09,33.27 21.23,45.03 14.16,11.75 31.86,17.63 53.13,17.63 19.61,0 36.52,-4.04 50.76,-12.13 v -23.35 c -17.23,11.07 -34.9,16.62 -53.01,16.62 -14.98,0 -27.15,-3.97 -36.5,-11.91 -9.36,-7.94 -14.05,-18.12 -14.05,-30.54 0,-8.85 1.39,-15.72 4.16,-20.66 2.78,-4.94 7.48,-9.71 14.16,-14.27 6.66,-4.57 16.35,-9.62 29.09,-15.17 24.55,-10.93 41.17,-21.03 49.86,-30.31 8.67,-9.3 13.03,-21.42 13.03,-36.39 0,-18.86 -7.05,-34.11 -21.12,-45.71 -14.08,-11.61 -32.79,-17.41 -56.15,-17.41 -22.32,0 -40.8,5.25 -55.49,15.72" /><path
             id="path226"
             style="fill:#ffffff;fill-opacity:1;fill-rule:nonzero;stroke:none"
             d="m 2026.91,4099.72 v -152.06 h 45.82 c 29.2,0 51.32,6.89 66.37,20.67 15.05,13.78 22.57,33.38 22.57,58.85 0,48.36 -27.78,72.54 -83.33,72.54 z m 0,-172.5 v -129.15 h -22.24 v 322.09 h 77.72 c 33.39,0 58.77,-7.63 76.14,-22.91 17.36,-15.27 26.05,-37.73 26.05,-67.38 0,-30.99 -10.07,-55.85 -30.21,-74.57 -20.14,-18.72 -47.21,-28.08 -81.19,-28.08 h -46.27" /><path
             id="path228"
             style="fill:#ffffff;fill-opacity:1;fill-rule:nonzero;stroke:none"
             d="m 2402.12,3798.07 v 137.91 c 0,27.26 -4.94,47.21 -14.82,59.87 -9.88,12.64 -25.31,18.97 -46.27,18.97 -13.93,0 -26.62,-3.74 -38.08,-11.23 -11.45,-7.49 -20.4,-18.01 -26.83,-31.55 -6.45,-13.56 -9.66,-29.09 -9.66,-46.61 v -127.36 h -20.66 v 340.51 h 20.66 v -151.83 h 0.9 c 18.26,31.29 44.62,46.94 79.06,46.94 25,0 43.99,-7.98 56.93,-23.92 12.95,-15.95 19.44,-38.97 19.44,-69.07 v -142.63 h -20.67" /><path
             id="path230"
             style="fill:#ffffff;fill-opacity:1;fill-rule:nonzero;stroke:none"
             d="m 2581.25,4014.82 c -27.1,0 -48.71,-9.17 -64.8,-27.51 -16.09,-18.35 -24.14,-43.69 -24.14,-76.03 0,-30.4 7.97,-54.66 23.92,-72.78 15.94,-18.11 37.32,-27.18 64.13,-27.18 27.4,0 48.66,8.99 63.79,26.96 15.11,17.97 22.68,42.9 22.68,74.79 0,32.94 -7.41,58.14 -22.24,75.59 -14.82,17.44 -35.93,26.16 -63.34,26.16 z m -1.57,-222.36 c -33.24,0 -59.71,10.93 -79.4,32.79 -19.69,21.87 -29.53,50.68 -29.53,86.48 0,37.58 10.07,67.3 30.2,89.16 20.14,21.87 47.21,32.8 81.2,32.8 32.8,0 58.69,-10.78 77.72,-32.35 19.01,-21.56 28.52,-51.13 28.52,-88.72 0,-35.93 -9.88,-64.95 -29.64,-87.03 -19.77,-22.09 -46.13,-33.13 -79.07,-33.13" /><path
             id="path232"
             style="fill:#ffffff;fill-opacity:1;fill-rule:nonzero;stroke:none"
             d="m 2897.16,3798.07 v 133.87 c 0,55.26 -19.9,82.88 -59.75,82.88 -21.85,0 -39.98,-8.09 -54.35,-24.26 -14.38,-16.17 -21.57,-36.31 -21.57,-60.42 v -132.07 h -20.66 v 230 h 20.66 v -41.77 h 0.9 c 16.78,31.59 42.99,47.39 78.62,47.39 25.02,0 44.06,-8.23 57.16,-24.71 13.11,-16.47 19.65,-40.12 19.65,-70.98 v -139.93 h -20.66" /><path
             id="path234"
             style="fill:#ffffff;fill-opacity:1;fill-rule:nonzero;stroke:none"
             d="m 3136.04,3931.04 c -0.89,26.65 -7.3,47.29 -19.19,61.88 -11.92,14.61 -28.21,21.9 -48.87,21.9 -21.7,0 -39.61,-7.27 -53.67,-21.78 -14.09,-14.53 -22.78,-35.19 -26.06,-62 z m -148.69,-18.86 c 0,-31.9 7.33,-56.68 22.02,-74.35 14.66,-17.67 34.66,-26.51 59.96,-26.51 25.91,0 51.07,9.52 75.46,28.53 v -22.01 c -23.94,-16.93 -50.52,-25.38 -79.72,-25.38 -30.26,0 -54.36,10.89 -72.33,32.68 -17.96,21.78 -26.95,51.55 -26.95,89.28 0,22.16 4.45,42.41 13.36,60.76 8.91,18.34 21.27,32.68 37.07,43.01 15.78,10.33 33.34,15.5 52.66,15.5 28,0 49.78,-9.89 65.37,-29.65 15.56,-19.77 23.36,-47.31 23.36,-82.66 v -9.2 h -170.26" /></g></g></g></g></svg>